<svg width="14" height="31" viewBox="0 0 14 31" fill="none" xmlns="http://www.w3.org/2000/svg">
  <path fill-rule="evenodd" clip-rule="evenodd"
    d="M7.17746 0.941972C6.9563 1.65537 6.70197 2.03547 5.80065 2.99977C4.39872 4.49969 3.97309 5.1255 3.7569 6.00484C3.64409 6.46367 3.63952 6.84052 3.74081 7.3356C3.89945 8.11092 4.27562 8.77912 5.13189 9.80662C5.32544 10.0389 5.50656 10.2289 5.53437 10.2289C5.57216 10.2289 5.59062 10.0799 5.60726 9.64182C5.61949 9.31891 5.64789 8.92497 5.67033 8.76635C5.69278 8.60774 5.73242 8.31111 5.75841 8.10717C5.88088 7.14592 6.20905 5.89109 6.78196 4.19329C7.41751 2.30998 7.45688 2.13912 7.45802 1.2571C7.4592 0.354231 7.38541 0.271298 7.17746 0.941972ZM7.96317 5.58935C7.96317 5.62079 8.0662 5.85714 8.19214 6.11464C8.87727 7.51564 9.09787 8.58207 8.99493 9.99597C8.96854 10.3586 8.93119 10.7307 8.91194 10.8231C8.89269 10.9155 8.85695 11.1209 8.83246 11.2795C8.77207 11.6712 8.60582 12.4171 8.508 12.7354C8.4456 12.9384 8.4383 13.0072 8.47518 13.0444C8.53565 13.1053 9.24602 12.3429 9.64937 11.7843C10.1823 11.0462 10.4252 10.5526 10.5661 9.9214C10.8556 8.62442 10.3007 7.51943 8.61004 6.02664C8.54591 5.96999 8.39346 5.8356 8.2713 5.72795C8.04218 5.52607 7.96317 5.49052 7.96317 5.58935ZM6.96281 7.41709C6.95149 7.47938 6.93161 7.71578 6.91863 7.94238C6.90562 8.16897 6.87891 8.48414 6.85927 8.64275C6.83959 8.80137 6.7953 9.27413 6.76078 9.69332C6.67046 10.7913 6.53836 12.1683 6.46444 12.7832C6.44401 12.9532 6.41735 13.222 6.40516 13.3806C6.38343 13.6633 6.37112 13.76 6.24502 14.6372C6.06575 15.8842 5.8881 16.5419 5.52723 17.2945C5.27614 17.8182 5.11095 18.0819 4.7166 18.5886C4.56064 18.789 4.291 19.1356 4.11745 19.3589C3.9439 19.5821 3.67766 19.9154 3.5258 20.0995C3.37395 20.2835 3.12545 20.5875 2.9736 20.775C2.82174 20.9625 2.57325 21.2681 2.42139 21.4542C2.26953 21.6403 2.02104 21.9471 1.86919 22.136C1.71733 22.3249 1.46884 22.6322 1.31698 22.8187C0.60775 23.6901 0.447807 23.9596 0.234064 24.6428C-0.209594 26.0608 -0.0196349 27.4483 0.779091 28.6241C0.967275 28.9012 1.50686 29.4833 1.75342 29.6753C2.20812 30.0293 2.90808 30.3575 3.41958 30.4564C3.56584 30.4847 4.82991 30.4999 7.04414 30.5C10.3003 30.5002 10.4564 30.4967 10.7321 30.4192C11.158 30.2995 11.3409 30.2256 11.67 30.0402C12.3088 29.6804 12.8758 29.1348 13.2738 28.4971C13.6243 27.9355 13.7258 27.6593 13.9581 26.6357C14.0817 26.0911 13.924 25.0732 13.5866 24.2374C13.3836 23.7348 13.2666 23.5658 12.3019 22.382C12.0741 22.1025 11.8002 21.7611 11.6932 21.6234C11.5185 21.3987 11.092 20.8735 10.5699 20.2402C10.2084 19.8016 9.20141 18.5274 9.00743 18.2629C8.71808 17.8685 8.33847 17.1898 8.20516 16.8286C7.95662 16.1553 7.7843 15.2972 7.62849 13.9574C7.59422 13.6628 7.54846 13.2735 7.52681 13.0922C7.50516 12.9109 7.46859 12.4938 7.4456 12.1652C7.42256 11.8367 7.38899 11.3917 7.37101 11.1765C7.35302 10.9612 7.30924 10.4143 7.27374 9.96111C7.23824 9.50793 7.19265 8.94248 7.17241 8.70455C7.15214 8.46663 7.12559 8.09584 7.11337 7.88058C7.08737 7.42381 7.06773 7.3038 7.0189 7.3038C6.99937 7.3038 6.97409 7.3548 6.96281 7.41709ZM1.71512 8.63245C1.52039 9.34841 1.48165 9.57187 1.48126 9.98171C1.48027 11.0537 1.82489 11.6737 3.11165 12.9149C3.97029 13.7431 4.34058 14.2407 4.55042 14.8483C4.65688 15.1566 4.68709 15.5625 4.62801 15.8915C4.58671 16.1214 4.67944 16.0716 4.79327 15.8028C4.84802 15.6735 4.93898 15.3908 4.99542 15.1746C5.08448 14.8334 5.09845 14.6968 5.10081 14.1428C5.10255 13.7332 5.08429 13.423 5.04985 13.2776C4.9669 12.9275 4.68145 12.3316 4.48735 12.1034C4.39099 11.9902 4.26686 11.8394 4.21152 11.7685C4.09272 11.6164 3.63364 11.1942 3.28966 10.9208C3.15547 10.8141 2.87475 10.5408 2.66582 10.3134C2.22555 9.8343 2.01911 9.44547 1.90472 8.87965C1.83617 8.54054 1.76529 8.44809 1.71512 8.63245Z"
    fill="white" />
</svg>
          