<svg width="43" height="10" viewBox="0 0 43 10" fill="none" xmlns="http://www.w3.org/2000/svg">
  <path fill-rule="evenodd" clip-rule="evenodd"
    d="M0.787237 0.248779C0.000228561 0.746698 0.000342251 0.745833 0.000228125 5.59652L0 9.9467H1.48819C3.05502 9.9467 3.55626 9.82543 4.00911 9.3367C4.50829 8.79825 4.53306 8.61916 4.59275 5.12973C4.65791 1.32103 4.69101 1.16215 5.57423 0.408735L6.04933 0.00343899H3.61218C1.26839 0.00343899 1.1602 0.0128423 0.787237 0.248779ZM7.82409 0.224676C6.81477 0.70152 6.3424 1.42349 6.3424 2.48925C6.3424 4.83057 9.31411 5.90541 10.9428 4.15313C12.1532 2.85089 11.6556 0.821705 9.96109 0.14913C9.41991 -0.0656227 8.35911 -0.0281204 7.82409 0.224676ZM14.4745 0.222514C13.9041 0.507842 13.5554 1.0063 13.4925 1.62581C13.4215 2.32573 13.6235 2.83521 14.1511 3.28666C15.7624 4.66521 18.1868 2.89617 17.2358 1.0357C16.7567 0.0984398 15.4763 -0.278648 14.4745 0.222514ZM18.6334 0.498332L19.0019 0.993226L19.0589 4.74043C19.1159 8.4778 19.1167 8.48882 19.397 8.95226C19.9305 9.83462 20.6948 10.0814 22.5742 9.97793L23.7498 9.91319L23.7155 5.57977C23.6825 1.43451 23.6709 1.22992 23.4466 0.868395C23.3176 0.660559 23.0404 0.380959 22.8306 0.246941C22.4691 0.016301 22.3383 0.00343899 20.3569 0.00343899H18.2647L18.6334 0.498332ZM25.9102 0.138538C25.9122 0.212896 26.4223 2.34032 27.0436 4.86623C28.0662 9.02305 28.2017 9.48196 28.4728 9.70277C28.7597 9.93643 28.859 9.9467 30.8224 9.9467H32.8724L32.8115 9.70352C32.7779 9.56972 32.2631 7.47482 31.6675 5.04802C31.0718 2.62111 30.5322 0.543078 30.4683 0.430027C30.2559 0.0543448 29.9509 0.00343899 27.9112 0.00343899C26.3815 0.00343899 25.9074 0.0354303 25.9102 0.138538ZM32.0692 0.0397533C32.0692 0.15302 34.2618 8.9795 34.3622 9.27088C34.5803 9.90282 34.7516 9.9467 37.0021 9.9467C38.1179 9.9467 39.0309 9.90509 39.0309 9.85407C39.0309 9.80317 38.5182 7.67542 37.8916 5.12562C36.8711 0.972907 36.7218 0.464504 36.4587 0.246617C36.1775 0.0138146 36.0778 0.00343899 34.1171 0.00343899C32.9908 0.00343899 32.0692 0.0197587 32.0692 0.0397533ZM40.1722 0.124812C39.0955 0.531513 38.6777 1.84543 39.3036 2.85694C40.1871 4.28466 42.4197 3.97707 42.9323 2.35718C43.1854 1.55696 42.7074 0.574527 41.8612 0.155938C41.5094 -0.0180692 40.5952 -0.0349289 40.1722 0.124812ZM13.6163 5.23835C12.9072 5.55102 12.4062 6.1514 12.211 6.92243C11.932 8.02343 12.534 9.20625 13.6163 9.68342C14.7072 10.1644 15.8306 9.98377 16.6655 9.19317C17.4919 8.41047 17.6803 7.41798 17.1892 6.43413C16.5212 5.09601 15.0533 4.60468 13.6163 5.23835Z"
    fill="white" />
</svg>