<svg width="24" height="30" viewBox="0 0 24 30" fill="none" xmlns="http://www.w3.org/2000/svg">
<style> @media (prefers-color-scheme: dark) { #logo { fill: white; } } @media (prefers-color-scheme: light) { #logo { fill: black; } } </style>
<g id="logo" fill="black">
<path d="M5.90839 8.06557C4.75312 8.06557 3.8289 7.14754 3.8289 6C3.8289 4.88525 4.75312 4 5.90839 4C7.03066 4 7.95487 4.88525 7.95487 6C7.95487 7.14754 7.03066 8.06557 5.90839 8.06557ZM1.51836 30C0.693163 30 0 29.4754 0 28.5902C0 27.8033 0.528124 27.4098 1.15527 27.4098C2.37656 27.4098 2.80566 29.082 3.49882 29.082C3.63085 29.082 3.69687 29.0492 3.79589 28.9508C4.05996 28.6885 4.05996 28 4.05996 26V16.1967C4.05996 13.1148 4.02695 12.9508 2.87168 12.7869V12.5574L7.75683 9.77049V22.623C7.75683 25.2787 7.19569 26.9836 4.72011 28.7541C3.30078 29.7705 2.50859 30 1.51836 30Z"/>
<path d="M9.67463 25.4426V25.2131C10.7639 24.918 10.7969 24.5246 10.7969 21.2459V6.26229C10.7969 3.18033 10.7309 3.08197 9.57561 2.98361V2.72131L14.4608 0V12.918L14.6918 12.6885C16.4412 10.8525 17.6625 9.90164 19.3789 9.90164C20.8313 9.90164 22.8777 10.7213 22.8777 13.6721V21.2459C22.8777 24.5246 22.8777 24.918 24 25.2131V25.4426H17.9596V25.2131C19.1148 24.918 19.2139 24.5246 19.2139 21.2459V12.623C19.2139 11.1475 18.5537 10.7213 17.9596 10.7213C17.3324 10.7213 16.3752 11.3115 14.6918 13.0492L14.4608 13.2787V21.2459C14.4608 24.5246 14.4938 24.918 15.682 25.2131V25.4426H9.67463Z"/>
<path d="M9.1775 27.1363H23.9818V29.9887H6.40291L9.1775 27.1363Z"/>
</g>
</svg>
